<svg xmlns="http://www.w3.org/2000/svg" viewBox="0 0 1800 1180">
<defs>
  <linearGradient id="sea" x1="0" y1="0" x2="1" y2="1"><stop stop-color="#7fd6e8"/><stop offset=".55" stop-color="#59bfd9"/><stop offset="1" stop-color="#3fa3c8"/></linearGradient>
  <linearGradient id="grass" x1="0" y1="0" x2=".9" y2="1"><stop stop-color="#b4dda1"/><stop offset=".55" stop-color="#95ca8e"/><stop offset="1" stop-color="#79b67c"/></linearGradient>
  <linearGradient id="grassHi" x1="0" y1="0" x2="1" y2="1"><stop stop-color="#c5e6ad"/><stop offset="1" stop-color="#91c98b"/></linearGradient>
  <linearGradient id="sand" x1="0" y1="0" x2="1" y2="1"><stop stop-color="#f8e5b7"/><stop offset="1" stop-color="#e7c780"/></linearGradient>
  <linearGradient id="road" x1="0" y1="0" x2="0" y2="1"><stop stop-color="#ccb89a"/><stop offset="1" stop-color="#ad987d"/></linearGradient>
  <linearGradient id="roofBlue" x1="0" y1="0" x2="1" y2="1"><stop stop-color="#729bb2"/><stop offset="1" stop-color="#496f88"/></linearGradient>
  <linearGradient id="roofRed" x1="0" y1="0" x2="1" y2="1"><stop stop-color="#d18369"/><stop offset="1" stop-color="#a9594d"/></linearGradient>
  <linearGradient id="roofGreen" x1="0" y1="0" x2="1" y2="1"><stop stop-color="#769f79"/><stop offset="1" stop-color="#4d765b"/></linearGradient>
  <linearGradient id="wood" x1="0" y1="0" x2="1" y2="1"><stop stop-color="#c99669"/><stop offset="1" stop-color="#8e6247"/></linearGradient>
  <pattern id="waves" width="120" height="72" patternUnits="userSpaceOnUse"><path d="M8 35C28 24 45 24 64 35S98 46 115 35" fill="none" stroke="#dff8fb" stroke-width="4" stroke-linecap="round" opacity=".42"/></pattern>
  <pattern id="stonePat" width="44" height="32" patternUnits="userSpaceOnUse"><path d="M0 0H44M0 16H44M22 0V16M8 16V32M36 16V32" stroke="#d2c7b0" stroke-width="2" opacity=".52"/></pattern>
  <filter id="sh" x="-30%" y="-35%" width="170%" height="190%"><feDropShadow dx="0" dy="12" stdDeviation="8" flood-color="#355d62" flood-opacity=".25"/></filter>
  <filter id="ss" x="-30%" y="-35%" width="170%" height="190%"><feDropShadow dx="0" dy="7" stdDeviation="5" flood-color="#355d62" flood-opacity=".2"/></filter>
  <symbol id="tree" viewBox="-42 -78 84 118">
    <ellipse cx="0" cy="23" rx="28" ry="11" fill="#4e7658" opacity=".2"/><rect x="-7" y="-18" width="14" height="50" rx="6" fill="#87684f"/>
    <circle cx="-15" cy="-28" r="28" fill="#6eaa70"/><circle cx="18" cy="-31" r="31" fill="#78b778"/><circle cx="0" cy="-51" r="34" fill="#87c380"/><circle cx="-8" cy="-58" r="18" fill="#a3d492" opacity=".72"/>
  </symbol>
  <symbol id="pine" viewBox="-35 -94 70 132"><ellipse cx="0" cy="23" rx="24" ry="9" fill="#4f7459" opacity=".2"/><rect x="-5" y="-8" width="10" height="42" rx="4" fill="#7d614a"/><path d="M0-88-31-34h15L-34-7h68L16-34h15Z" fill="#4f8666"/><path d="M0-69-24-29h14L-27-5h54L10-29h14Z" fill="#609a72"/></symbol>
  <symbol id="lamp" viewBox="-18 -68 36 90"><ellipse cx="0" cy="15" rx="13" ry="5" fill="#526768" opacity=".18"/><rect x="-3" y="-39" width="6" height="51" rx="3" fill="#52666a"/><path d="M0-41C0-52 8-58 14-58" stroke="#52666a" stroke-width="5" fill="none" stroke-linecap="round"/><circle cx="14" cy="-57" r="9" fill="#ffe5a0" stroke="#687a79" stroke-width="4"/></symbol>
  <symbol id="bench" viewBox="-40 -25 80 50"><ellipse cx="0" cy="18" rx="38" ry="6" fill="#65766f" opacity=".15"/><rect x="-31" y="-10" width="62" height="10" rx="4" fill="#a67655"/><rect x="-31" y="3" width="62" height="8" rx="4" fill="#946747"/><rect x="-25" y="10" width="5" height="12" rx="2" fill="#59666a"/><rect x="20" y="10" width="5" height="12" rx="2" fill="#59666a"/></symbol>
  <symbol id="flowers" viewBox="-50 -26 100 52"><ellipse cx="0" cy="9" rx="46" ry="16" fill="#6da36b"/><circle cx="-30" cy="0" r="7" fill="#f5a5b6"/><circle cx="-12" cy="-5" r="7" fill="#f3d979"/><circle cx="8" cy="1" r="7" fill="#d9a6e1"/><circle cx="27" cy="-3" r="7" fill="#f5a5b6"/><circle cx="36" cy="7" r="6" fill="#f3d979"/></symbol>
</defs>
<rect width="1800" height="1180" fill="url(#sea)"/>
<rect width="1800" height="1180" fill="url(#waves)" opacity=".52">
  <animateTransform attributeName="transform" type="translate" from="0 0" to="24 0" dur="8s" repeatCount="indefinite"/>
</rect>

<!-- Main coast -->
<path d="M0 0H1190C1260 40 1287 105 1257 165C1228 223 1166 247 1148 315C1132 374 1170 417 1138 473C1104 533 1019 538 990 602C961 666 1002 724 966 780C931 835 852 831 797 874C741 917 727 1003 653 1040C552 1092 390 1055 281 1046C184 1038 91 1064 0 1078Z" fill="url(#grass)" stroke="#689d74" stroke-width="10"/>
<path d="M0 0H1120C1181 56 1173 126 1137 170C1097 220 1008 213 938 247C851 289 849 350 767 374C666 404 562 367 454 383C322 403 195 452 0 433Z" fill="url(#grassHi)"/>
<path d="M958 566C1055 533 1172 552 1248 611C1337 680 1355 773 1297 851C1237 932 1113 972 998 939C928 919 855 877 797 874C852 831 931 835 966 780C1002 724 961 666 990 602Z" fill="url(#sand)" stroke="#d7ba7b" stroke-width="8"/>
<path d="M1164 824C1243 824 1309 860 1360 909C1421 968 1504 990 1574 949C1635 914 1673 850 1659 784C1644 716 1580 676 1506 681C1430 687 1375 730 1311 768C1264 796 1216 813 1164 824Z" fill="#93c287" stroke="#6f9d74" stroke-width="9"/>

<!-- cliffs -->
<path d="M805 875C865 830 932 830 966 780C1002 724 961 666 990 602C1019 538 1104 533 1138 473" fill="none" stroke="#8f8273" stroke-width="34" opacity=".8" stroke-linecap="round"/>
<path d="M0 846C158 823 310 844 420 893C537 945 646 965 744 929" fill="none" stroke="#958777" stroke-width="32" opacity=".82" stroke-linecap="round"/>

<!-- upper road -->
<path d="M-30 166C175 130 336 137 490 165C650 194 775 201 914 171C1001 152 1084 160 1160 206" fill="none" stroke="#849497" stroke-width="72" stroke-linecap="round"/>
<path d="M-30 166C175 130 336 137 490 165C650 194 775 201 914 171C1001 152 1084 160 1160 206" fill="none" stroke="#d4dddd" stroke-width="4" stroke-dasharray="28 34" opacity=".7"/>

<!-- retaining wall -->
<path d="M85 255C263 241 400 250 530 281C665 313 805 306 932 278" fill="none" stroke="#8d897e" stroke-width="18" stroke-linecap="round"/>
<path d="M85 253C263 239 400 248 530 279C665 311 805 304 932 276" fill="none" stroke="#c3bcaa" stroke-width="5" stroke-dasharray="18 13" stroke-linecap="round"/>

<!-- path network -->
<g fill="none" stroke="url(#road)" stroke-linecap="round" stroke-linejoin="round">
<path d="M170 226C202 302 258 349 334 394C410 439 461 491 506 545" stroke-width="48"/>
<path d="M334 394C443 364 548 364 650 406C742 444 826 479 900 528" stroke-width="46"/>
<path d="M506 545C488 625 487 692 526 756" stroke-width="44"/>
<path d="M650 406C665 497 651 573 619 652" stroke-width="42"/>
<path d="M900 528C835 590 788 638 741 709" stroke-width="40"/>
<path d="M526 756C611 779 691 770 763 733" stroke-width="38"/>
<path d="M763 733C843 720 914 740 971 784" stroke-width="35"/>
<path d="M1184 854C1281 856 1345 887 1411 914C1472 939 1524 914 1569 862" stroke-width="29"/>
</g>

<!-- Station -->
<g transform="translate(160 150)" filter="url(#sh)">
<rect x="-86" y="-58" width="172" height="100" rx="18" fill="#dbe9e9" stroke="#71919c" stroke-width="6"/>
<path d="M-104-55L0-114L104-55Z" fill="url(#roofBlue)" stroke="#4e7186" stroke-width="6"/>
<path d="M-60-52H60L44-19H-44Z" fill="#88b9c8"/>
<rect x="-18" y="-2" width="36" height="44" rx="6" fill="#6e8792"/>
<rect x="-62" y="-16" width="31" height="25" rx="5" fill="#d9f7f6" stroke="#78969b" stroke-width="4"/>
<rect x="31" y="-16" width="31" height="25" rx="5" fill="#d9f7f6" stroke="#78969b" stroke-width="4"/>
<rect x="-73" y="41" width="146" height="13" rx="6" fill="#9d8b74"/>
<circle cx="-116" cy="12" r="15" fill="#ffd96f" stroke="#9c8250" stroke-width="5"/>
</g>
<g transform="translate(43 181)" filter="url(#ss)"><rect x="-36" y="-18" width="72" height="35" rx="12" fill="#f1b36d" stroke="#b67c45" stroke-width="5"/><rect x="-22" y="-11" width="32" height="14" rx="5" fill="#dff1f1"/><circle cx="-20" cy="18" r="8" fill="#56676e"/><circle cx="21" cy="18" r="8" fill="#56676e"/></g>

<!-- Homes -->
<g transform="translate(345 278)" filter="url(#ss)"><rect x="-52" y="-38" width="104" height="76" rx="10" fill="#ead9bf" stroke="#b79e82" stroke-width="5"/><path d="M-66-36L0-90L66-36Z" fill="url(#roofRed)" stroke="#9b594e" stroke-width="5"/><rect x="-11" y="3" width="22" height="35" rx="4" fill="#7b6451"/><rect x="-38" y="-7" width="22" height="20" rx="4" fill="#bde0e0"/><rect x="16" y="-7" width="22" height="20" rx="4" fill="#bde0e0"/></g>
<g transform="translate(493 292)" filter="url(#ss)"><rect x="-48" y="-35" width="96" height="70" rx="10" fill="#d6dfc4" stroke="#a4b292" stroke-width="5"/><path d="M-62-33L0-82L62-33Z" fill="url(#roofGreen)" stroke="#52725a" stroke-width="5"/><rect x="-10" y="2" width="20" height="33" rx="4" fill="#786452"/><rect x="-35" y="-7" width="20" height="19" rx="4" fill="#dceeed"/><rect x="15" y="-7" width="20" height="19" rx="4" fill="#dceeed"/></g>

<!-- Inn -->
<g transform="translate(294 430)" filter="url(#sh)">
<rect x="-88" y="-59" width="176" height="116" rx="15" fill="#d7e5ea" stroke="#8ba4ad" stroke-width="6"/>
<path d="M-106-56L0-126L106-56Z" fill="url(#roofBlue)" stroke="#4b7187" stroke-width="7"/>
<path d="M-56-58L0-99L56-58" fill="none" stroke="#a9ccd5" stroke-width="9"/>
<rect x="-16" y="5" width="32" height="52" rx="6" fill="#687b85"/>
<rect x="-62" y="-15" width="28" height="28" rx="5" fill="#dff5f3" stroke="#89a5a8" stroke-width="4"/>
<rect x="34" y="-15" width="28" height="28" rx="5" fill="#dff5f3" stroke="#89a5a8" stroke-width="4"/>
<rect x="-95" y="56" width="190" height="13" rx="6" fill="#a67a56"/>
<use href="#flowers" x="-94" y="44" width="84" height="44"/><use href="#flowers" x="10" y="44" width="84" height="44"/>
</g>

<!-- Sweet shop -->
<g transform="translate(485 428)" filter="url(#ss)">
<rect x="-65" y="-44" width="130" height="88" rx="13" fill="#f4dfb7" stroke="#cca86d" stroke-width="5"/>
<path d="M-78-43L0-94L78-43Z" fill="url(#roofRed)" stroke="#ac6554" stroke-width="5"/>
<path d="M-56-8H56" stroke="#f3b99f" stroke-width="18"/><path d="M-53-8H53" stroke="#fff3dd" stroke-width="6" stroke-dasharray="18 18"/>
<rect x="-13" y="6" width="26" height="38" rx="5" fill="#8a6a50"/><rect x="-48" y="0" width="24" height="24" rx="5" fill="#d6f1ec"/><rect x="24" y="0" width="24" height="24" rx="5" fill="#d6f1ec"/>
</g>

<!-- General shop -->
<g transform="translate(650 447)" filter="url(#ss)">
<rect x="-67" y="-45" width="134" height="90" rx="14" fill="#dce5c8" stroke="#99aa80" stroke-width="5"/>
<path d="M-80-44L0-98L80-44Z" fill="url(#roofGreen)" stroke="#55765b" stroke-width="5"/>
<rect x="-15" y="7" width="30" height="38" rx="5" fill="#7b6752"/><rect x="-50" y="-1" width="25" height="24" rx="5" fill="#e8f3e0"/><rect x="25" y="-1" width="25" height="24" rx="5" fill="#e8f3e0"/>
<path d="M-61-14H61" stroke="#86aa73" stroke-width="13"/><path d="M-60-14H60" stroke="#ecf3dd" stroke-width="5" stroke-dasharray="18 17"/>
</g>

<!-- Cafe -->
<g transform="translate(410 610)" filter="url(#sh)">
<rect x="-91" y="-59" width="182" height="116" rx="17" fill="#f1d2c9" stroke="#c68e81" stroke-width="6"/>
<path d="M-108-57L0-126L108-57Z" fill="#ba6d69" stroke="#925253" stroke-width="7"/>
<rect x="-18" y="7" width="36" height="50" rx="6" fill="#7e665b"/><rect x="-67" y="-16" width="34" height="32" rx="6" fill="#d8f0ed" stroke="#8cabaa" stroke-width="4"/><rect x="33" y="-16" width="34" height="32" rx="6" fill="#d8f0ed" stroke="#8cabaa" stroke-width="4"/>
<path d="M-74 2H74" stroke="#fff0e6" stroke-width="13"/><path d="M-73 2H73" stroke="#d78f83" stroke-width="5" stroke-dasharray="21 19"/>
<rect x="-102" y="57" width="204" height="15" rx="7" fill="#a87958"/>
<circle cx="-68" cy="84" r="13" fill="#eed17b"/><circle cx="-42" cy="85" r="13" fill="#d69084"/><circle cx="54" cy="84" r="13" fill="#eed17b"/><circle cx="80" cy="85" r="13" fill="#d69084"/>
</g>

<!-- Seafood -->
<g transform="translate(646 615)" filter="url(#sh)">
<rect x="-84" y="-55" width="168" height="110" rx="16" fill="#ead9e6" stroke="#b08ca8" stroke-width="6"/>
<path d="M-101-53L0-117L101-53Z" fill="#876b85" stroke="#6e556e" stroke-width="7"/>
<rect x="-17" y="7" width="34" height="48" rx="6" fill="#735f68"/><rect x="-61" y="-12" width="31" height="29" rx="6" fill="#dcf1f0" stroke="#95aead" stroke-width="4"/><rect x="30" y="-12" width="31" height="29" rx="6" fill="#dcf1f0" stroke="#95aead" stroke-width="4"/>
<path d="M-69 2H69" stroke="#f7e9f3" stroke-width="13"/><path d="M-68 2H68" stroke="#aa83a2" stroke-width="5" stroke-dasharray="19 18"/>
<circle cx="104" cy="-2" r="19" fill="#5aaec3" stroke="#477c8c" stroke-width="5"/><path d="M95-2Q104-14 113-2Q104 10 95-2Z" fill="#f5f2e2"/>
</g>

<!-- Activity hut -->
<g transform="translate(850 560)" filter="url(#ss)"><rect x="-57" y="-39" width="114" height="78" rx="13" fill="#e2d2b6" stroke="#aa9271" stroke-width="5"/><path d="M-70-38L0-85L70-38Z" fill="#8f6c55" stroke="#735641" stroke-width="5"/><rect x="-13" y="5" width="26" height="34" rx="5" fill="#735f4d"/><circle cx="47" cy="5" r="14" fill="#6cc2d3" stroke="#468a9b" stroke-width="4"/></g>

<!-- Plaza -->
<g filter="url(#sh)">
<ellipse cx="557" cy="790" rx="178" ry="125" fill="#ddd2ba" stroke="#b7aa90" stroke-width="8"/>
<ellipse cx="557" cy="790" rx="165" ry="113" fill="url(#stonePat)"/>
<circle cx="557" cy="774" r="48" fill="#b8dce1" stroke="#8baeb2" stroke-width="8"/><circle cx="557" cy="774" r="30" fill="#eaf8f8"/><circle cx="557" cy="774" r="12" fill="#89c7d0"/><path d="M557 752v-33" stroke="#84b8bf" stroke-width="8" stroke-linecap="round"/><circle cx="557" cy="713" r="9" fill="#eaf8f8"/>
<use href="#bench" x="436" y="810" width="83" height="52"/><use href="#bench" x="597" y="810" width="83" height="52"/>
<use href="#lamp" x="447" y="724" width="42" height="94"/><use href="#lamp" x="647" y="724" width="42" height="94"/>
</g>

<!-- Boardwalk -->
<path d="M728 859C820 814 910 808 997 844C1066 873 1105 905 1162 932" fill="none" stroke="#73523f" stroke-width="64" stroke-linecap="round"/>
<path d="M728 859C820 814 910 808 997 844C1066 873 1105 905 1162 932" fill="none" stroke="url(#wood)" stroke-width="54" stroke-linecap="round"/>
<path d="M741 849C820 817 904 814 988 848" fill="none" stroke="#e2b589" stroke-width="4" stroke-dasharray="10 14" opacity=".75"/>

<!-- Beach props and tide pools -->
<g filter="url(#ss)"><path d="M1086 661l40-63 40 63Z" fill="#ef8b7f" stroke="#bc675f" stroke-width="5"/><rect x="1123" y="660" width="6" height="55" rx="3" fill="#8b6e54"/><rect x="1208" y="720" width="78" height="35" rx="8" fill="#e98f83" transform="rotate(9 1247 738)"/><rect x="1218" y="727" width="58" height="7" rx="3" fill="#fff2df" transform="rotate(9 1247 738)"/><circle cx="1303" cy="657" r="22" fill="#f1d568" stroke="#c4a64f" stroke-width="5"/><path d="M1288 657h30M1303 642v30" stroke="#fff3cf" stroke-width="5"/></g>
<g><path d="M1006 694c31-26 76-25 103 0 20 19 10 45-15 58-32 17-83 13-105-10-18-20-9-35 17-48Z" fill="#62bdd1" stroke="#c4eded" stroke-width="6"/><path d="M1118 773c23-20 58-18 77 1 15 16 8 35-11 46-24 14-64 11-81-8-13-15-5-28 15-39Z" fill="#61b9ce" stroke="#c4eded" stroke-width="5"/><path d="M1208 686c17-14 43-12 57 3 11 12 5 27-9 35-18 10-47 8-60-6-10-11-4-21 12-32Z" fill="#65bed2" stroke="#c4eded" stroke-width="5"/></g>

<!-- Pier -->
<path d="M1127 854C1192 872 1264 878 1333 869" fill="none" stroke="#6e513d" stroke-width="55" stroke-linecap="round"/>
<path d="M1127 854C1192 872 1264 878 1333 869" fill="none" stroke="url(#wood)" stroke-width="45" stroke-linecap="round"/>
<rect x="1312" y="837" width="119" height="68" rx="12" fill="#9f714f" stroke="#6f513f" stroke-width="7" transform="rotate(-3 1372 871)"/>
<g transform="translate(1404 840)"><path d="M0 0q35 18 67 0q-11 39-34 44Q9 39 0 0Z" fill="#f1f0e3" stroke="#7194a2" stroke-width="5"/><path d="M33 0v-40" stroke="#6d7e82" stroke-width="5"/><path d="M35-39l29 24H35Z" fill="#e48a7d"/></g>

<!-- Lighthouse path and lighthouse -->
<path d="M1193 888C1281 885 1364 921 1424 939C1494 960 1548 929 1588 872" fill="none" stroke="#bca589" stroke-width="31" stroke-linecap="round"/>
<path d="M1193 888C1281 885 1364 921 1424 939C1494 960 1548 929 1588 872" fill="none" stroke="#ead9b7" stroke-width="21" stroke-linecap="round"/>
<g transform="translate(1531 785)" filter="url(#sh)"><path d="M-30 83L-19-78H19L30 83Z" fill="#f5f0e4" stroke="#c8bda8" stroke-width="6"/><path d="M-25-28H25" stroke="#cf625b" stroke-width="18"/><rect x="-27" y="-94" width="54" height="25" rx="7" fill="#a9d6dc" stroke="#638f98" stroke-width="5"/><path d="M-41-94L0-124L41-94Z" fill="#cb5e58" stroke="#9a4747" stroke-width="6"/><rect x="-9" y="39" width="18" height="44" rx="5" fill="#806755"/><path d="M-47 86H47" stroke="#b69d7f" stroke-width="12" stroke-linecap="round"/></g>

<!-- gardens / yards -->
<path d="M735 650C802 606 869 596 929 619" fill="none" stroke="#9d9484" stroke-width="18" stroke-linecap="round"/>
<path d="M741 648C807 612 866 604 924 624" fill="none" stroke="#d4c9ad" stroke-width="8" stroke-dasharray="15 12"/>
<use href="#flowers" x="746" y="588" width="94" height="50"/><use href="#flowers" x="830" y="589" width="94" height="50"/>
<g fill="none" stroke="#9d8364" stroke-width="8" stroke-linecap="round"><path d="M214 517C244 526 273 532 302 527"/><path d="M420 514C451 524 487 528 519 520"/><path d="M577 528C610 541 653 543 686 533"/></g>

<!-- natural boundary trees -->
<g>
<use href="#tree" x="30" y="300" width="96" height="136"/><use href="#tree" x="82" y="355" width="92" height="132"/><use href="#tree" x="26" y="435" width="100" height="142"/><use href="#tree" x="84" y="530" width="94" height="135"/><use href="#tree" x="31" y="630" width="100" height="142"/><use href="#tree" x="102" y="730" width="92" height="132"/><use href="#tree" x="174" y="816" width="92" height="132"/><use href="#tree" x="268" y="887" width="90" height="128"/>
<use href="#pine" x="1040" y="280" width="79" height="145"/><use href="#pine" x="1106" y="321" width="73" height="136"/><use href="#tree" x="995" y="372" width="92" height="132"/><use href="#tree" x="945" y="445" width="86" height="125"/>
<use href="#tree" x="739" y="248" width="90" height="130"/><use href="#tree" x="821" y="256" width="86" height="125"/><use href="#pine" x="905" y="235" width="70" height="132"/><use href="#tree" x="216" y="246" width="85" height="124"/><use href="#tree" x="576" y="248" width="88" height="128"/>
</g>

<!-- flowers, benches, lamps -->
<use href="#flowers" x="120" y="646" width="105" height="56"/><use href="#flowers" x="212" y="692" width="105" height="56"/><use href="#flowers" x="744" y="485" width="98" height="52"/><use href="#flowers" x="829" y="505" width="98" height="52"/><use href="#flowers" x="420" y="912" width="104" height="55"/><use href="#flowers" x="535" y="925" width="104" height="55"/>
<use href="#bench" x="740" y="748" width="83" height="52"/><use href="#bench" x="839" y="748" width="83" height="52"/>
<use href="#lamp" x="770" y="676" width="42" height="94"/><use href="#lamp" x="910" y="694" width="42" height="94"/><use href="#lamp" x="283" y="523" width="42" height="94"/><use href="#lamp" x="706" y="529" width="42" height="94"/>

<!-- coast foam -->
<g fill="none" stroke="#f2ffff" stroke-width="9" stroke-linecap="round" opacity=".75">
<path d="M814 883C879 909 941 927 1006 946"/><path d="M994 582C1078 549 1181 566 1246 615"/><path d="M1296 854C1366 817 1450 783 1521 792"/><path d="M1456 692C1519 668 1581 682 1620 724"/>
<animate attributeName="opacity" values=".45;.82;.45" dur="3.4s" repeatCount="indefinite"/>
</g>
</svg>